<mxfile host="app.diagrams.net" modified="2024-02-28T02:48:58.705Z" agent="Mozilla/5.0 (Macintosh; Intel Mac OS X 10_15_7) AppleWebKit/537.36 (KHTML, like Gecko) Chrome/121.0.0.0 Safari/537.36" etag="L2eCEMkfIiVNNb3HNEh_" version="23.1.7" type="github">
  <diagram name="第 1 页" id="mN5AgLcgQHXgOPMO2XUk">
    <mxGraphModel dx="1242" dy="703" grid="1" gridSize="10" guides="1" tooltips="1" connect="1" arrows="1" fold="1" page="1" pageScale="1" pageWidth="827" pageHeight="1169" math="0" shadow="0">
      <root>
        <mxCell id="0" />
        <mxCell id="1" parent="0" />
        <mxCell id="8kMtXXIsv-n1UFxot8m4-2" style="edgeStyle=orthogonalEdgeStyle;rounded=0;orthogonalLoop=1;jettySize=auto;html=1;entryX=0;entryY=0.5;entryDx=0;entryDy=0;entryPerimeter=0;" edge="1" parent="1" source="8kMtXXIsv-n1UFxot8m4-1" target="8kMtXXIsv-n1UFxot8m4-3">
          <mxGeometry relative="1" as="geometry">
            <mxPoint x="430" y="220" as="targetPoint" />
          </mxGeometry>
        </mxCell>
        <mxCell id="8kMtXXIsv-n1UFxot8m4-1" value="dbz&amp;nbsp;" style="rounded=0;whiteSpace=wrap;html=1;" vertex="1" parent="1">
          <mxGeometry x="250" y="190" width="120" height="60" as="geometry" />
        </mxCell>
        <mxCell id="8kMtXXIsv-n1UFxot8m4-3" value="config topic" style="strokeWidth=2;html=1;shape=mxgraph.flowchart.database;whiteSpace=wrap;" vertex="1" parent="1">
          <mxGeometry x="420" y="190" width="100" height="60" as="geometry" />
        </mxCell>
        <mxCell id="8kMtXXIsv-n1UFxot8m4-4" value="signal topic" style="strokeWidth=2;html=1;shape=mxgraph.flowchart.database;whiteSpace=wrap;" vertex="1" parent="1">
          <mxGeometry x="110" y="190" width="100" height="60" as="geometry" />
        </mxCell>
        <mxCell id="8kMtXXIsv-n1UFxot8m4-5" style="edgeStyle=orthogonalEdgeStyle;rounded=0;orthogonalLoop=1;jettySize=auto;html=1;entryX=1;entryY=0.5;entryDx=0;entryDy=0;entryPerimeter=0;" edge="1" parent="1" source="8kMtXXIsv-n1UFxot8m4-1" target="8kMtXXIsv-n1UFxot8m4-4">
          <mxGeometry relative="1" as="geometry" />
        </mxCell>
      </root>
    </mxGraphModel>
  </diagram>
</mxfile>
